<svg width="55" height="40" viewBox="0 0 55 40" fill="none" xmlns="http://www.w3.org/2000/svg">
<path d="M6.62827 34.8486C12.5443 35.1647 16.3146 28.9078 18.3835 24.2608C18.4413 24.1265 18.1223 23.9926 18.0645 24.1363C16.2857 27.9594 13.2405 32.1944 9.08387 33.6892C6.88943 34.4746 4.26985 34.197 2.75172 32.2996C1.46636 30.6995 1.0796 28.5438 1.04072 26.5604C0.934564 22.1816 2.65504 17.956 5.04286 14.3439C6.27042 12.4756 7.69185 10.6933 9.29619 9.14118C10.0503 8.41303 10.8527 7.72342 11.7324 7.15779C12.6703 6.54475 14.178 5.54836 15.3188 5.99839C16.6914 6.52548 16.682 8.36511 16.5658 9.57243C16.4308 10.8756 16.1696 12.1787 15.7828 13.434C15.0387 15.896 13.8012 18.119 12.303 20.2081C12.148 20.4284 12.612 20.668 12.767 20.4951C14.4586 18.5216 15.6961 16.1835 16.5464 13.7309C17.2427 11.709 18.2868 8.69115 17.1071 6.66923C14.3908 1.99359 8.05917 8.73907 6.2126 11.0001C2.95507 14.9762 0.344959 19.7862 0.025984 24.9796C-0.235177 29.387 1.43745 34.5705 6.62827 34.8486Z" fill="black"/>
<path d="M20.111 27.0682C20.1399 27.2504 20.4495 27.4515 20.6329 27.327C21.1068 27.0109 21.0779 26.3114 21.1746 25.7843C21.3775 24.6441 21.5419 23.4847 21.8509 22.354C22.315 20.6294 23.1079 18.8758 24.5966 17.7934C24.6255 17.7648 24.5483 17.7262 24.5288 17.7455C23.1079 18.5023 22.151 19.7768 21.6192 21.2711C21.2902 22.2008 21.0874 23.1587 20.9035 24.1264C20.8651 24.3472 20.8262 24.5676 20.7879 24.7879C20.7779 24.117 20.7879 23.4561 20.8262 22.7852C20.8651 22.1144 20.9229 21.4342 21.0101 20.7633C21.1163 19.9971 21.4064 19.1539 21.2808 18.3971C21.2419 18.1768 20.7684 17.87 20.5845 18.119C20.2272 18.6367 20.1883 19.269 20.0821 19.882C19.9565 20.6581 19.8788 21.444 19.821 22.2389C19.7632 23.0342 19.7437 23.8295 19.7632 24.6249C19.7726 25.4874 19.9565 26.2155 20.111 27.0682Z" fill="black"/>
<path d="M26.0486 28.036C27.2084 27.9115 27.5757 26.0141 27.943 25.1422C28.6877 23.4083 29.5673 22.9577 30.8916 22.7468C31.0271 22.7182 30.8338 22.565 30.766 22.565C29.2678 22.5744 28.0981 23.3984 27.4118 24.7015C27.025 25.4396 26.7927 26.6563 26.0292 27.1162C25.0434 27.7198 24.7239 25.2573 24.705 24.6442C24.6566 22.8812 25.1206 20.5816 26.3771 19.2592C26.5126 19.1155 26.7927 18.7805 27.0056 18.742C27.3923 18.6748 27.3824 18.9529 27.4018 19.1925C27.4501 19.5754 27.2184 20.1217 27.0733 20.4764C26.6866 21.4056 25.942 21.8369 25.3429 22.5744C25.169 22.7853 25.5747 23.0057 25.7586 22.9484C27.1601 22.5458 29.7607 19.1155 27.7497 18.0425C26.88 17.5732 25.9714 18.1576 25.3913 18.8092C24.4827 19.815 24.0859 21.214 23.8442 22.5171C23.603 23.8682 23.5641 25.3052 24.1443 26.5891C24.4727 27.3365 25.1301 28.1318 26.0486 28.036Z" fill="black"/>
<path d="M30.6312 27.3363C31.5782 27.8155 32.4095 27.0873 32.9608 26.3784C33.3375 25.9087 33.676 25.4107 33.9855 24.893C34.2656 24.4331 34.7106 23.8102 34.904 23.2544C34.9135 23.5711 34.9329 23.8774 34.9713 24.1841C35.0391 24.73 35.0974 25.3816 35.4064 25.8415C37.0307 28.304 38.7801 23.3695 39.1379 22.4117C39.1573 22.3539 39.0218 22.2966 39.0023 22.3539C38.7222 23.0534 38.3938 23.6476 37.9682 24.2701C37.6975 24.6727 36.8662 25.9758 36.4894 25.9758C36.1316 25.9758 36.0443 24.8357 36.0254 24.5675C35.9865 24.0498 35.9865 23.5325 35.9287 23.0153C35.851 22.4304 35.4936 21.9132 34.8362 21.8747C34.295 21.8367 33.7532 23.1013 33.4537 23.6763C33.0769 24.3951 32.1005 26.7232 31.2208 26.455C30.9502 26.3686 30.7469 26.0618 30.7279 25.6211C30.7085 25.2956 30.7374 24.9696 30.7857 24.6534C30.8824 23.9831 31.1242 23.3216 31.3948 22.6987C31.8588 21.6643 32.4095 20.5429 33.2603 19.7574C33.7532 19.3069 34.4589 18.8855 35.1647 18.9429C36.0543 19.0006 36.2861 19.7481 36.6728 20.3804C36.7695 20.5335 37.0885 20.62 37.1947 20.4471C37.1947 20.4471 37.4463 19.3168 36.0638 18.4928C35.223 17.985 34.14 18.1189 33.2797 18.5595C32.255 19.0772 31.5976 20.045 31.0564 21.0127C30.4085 22.1622 29.8288 23.4273 29.7127 24.7591C29.6255 25.6691 29.7032 26.8764 30.6312 27.3363Z" fill="black"/>
<path d="M35.5591 13.9992C36.835 13.9705 38.1303 13.3669 39.3484 13.0122C40.1314 12.7825 40.9049 12.5621 41.6879 12.3606C41.2917 15.0242 41.0016 17.7071 40.8082 20.39C40.557 23.7244 40.4409 27.0683 40.6826 30.4027C40.7988 31.9741 40.9921 33.5455 41.3012 35.0877C41.6396 36.7836 42.2003 38.3071 42.9543 39.8597C43.0122 39.9936 43.37 40.0894 43.3122 39.8691C42.5192 36.7456 41.9007 33.507 41.6784 30.2876C41.4656 27.0589 41.5818 23.8202 41.8135 20.6009C42.0263 17.7743 42.3064 14.9284 42.6932 12.0924C42.906 12.0444 43.1283 11.9871 43.3506 11.9293C44.6848 11.6038 46.0379 11.3069 47.3916 11.0387C48.5997 10.7991 49.9628 10.7512 51.0842 10.2147C51.3743 10.0709 50.9392 9.81209 50.7847 9.8027C49.4794 9.69699 48.1551 10.0517 46.8693 10.3006C45.5161 10.5689 44.1625 10.8757 42.8093 11.2012C43.3311 7.5412 44.008 3.90047 44.8782 0.335813C44.9454 0.0774546 44.3852 -0.142866 44.3175 0.115492C43.4667 3.39264 42.6354 6.67869 42.0647 10.023C41.978 10.4923 41.9007 10.9715 41.8235 11.4507C40.7694 11.7189 39.7158 12.0158 38.6721 12.3226C37.6085 12.6387 36.0809 12.8877 35.2401 13.6445C35.0662 13.8075 35.4235 13.9992 35.5591 13.9992Z" fill="black"/>
<path d="M44.5855 26.2059C44.8078 26.7043 45.2618 27.1257 45.8419 27.1257C46.7411 27.1355 47.3307 26.1579 47.6402 25.4491C47.843 24.9985 48.0459 24.1459 48.4909 23.8777C49.5735 23.188 50.0569 24.673 50.3664 25.3152C50.7143 26.0335 51.1299 26.7522 51.9513 26.9725C54.0879 27.5569 54.7937 24.9318 54.9965 23.4276C55.016 23.3219 54.7837 23.2547 54.7648 23.3698C54.6098 24.3183 54.4164 25.4204 53.6723 26.1006C53.0727 26.6564 52.0869 26.8861 51.4584 26.1486C51.1589 25.7939 51.0427 25.2767 50.8882 24.8553C50.5403 23.9162 49.699 22.8334 48.5487 23.0058C47.9686 23.0823 47.6013 23.5235 47.3112 23.9928C47.0989 24.3475 46.1514 26.5032 45.5713 26.2251C45.349 26.1199 45.3007 25.0657 45.2718 24.8647C45.204 24.4141 45.1462 23.9542 45.1073 23.5042C45.0784 23.1589 45.059 22.8141 45.0395 22.4693C47.7463 19.2593 49.4673 15.1201 50.1825 11.0388C50.3564 10.0419 50.4626 9.03613 50.5403 8.02048C50.5982 7.12931 50.7821 6.04648 50.4142 5.18446C50.2019 4.70529 49.7863 4.30268 49.245 4.25477C48.4715 4.18808 47.988 4.79124 47.6113 5.35686C46.3737 7.2538 45.8225 9.47677 45.3102 11.6518C44.74 14.0758 44.2665 16.5384 44.0826 19.039C43.9859 20.2271 43.9665 21.425 44.0343 22.613C44.102 23.7339 44.1215 25.1616 44.5855 26.2059ZM45.0301 20.438C45.1751 16.5384 45.9486 12.4565 47.1956 8.74862C47.4757 7.89599 47.8236 7.05274 48.2781 6.2668C48.481 5.92199 48.6938 5.48135 49.0128 5.21311C49.728 4.61884 50.0664 5.61572 50.1631 6.2095C50.4242 7.83819 50.1436 9.66844 49.8635 11.2784C49.1383 15.3503 47.4079 18.9432 45.0395 22.2969C45.0106 21.674 45.0106 21.0609 45.0301 20.438Z" fill="black"/>
</svg>
