<svg width="257" height="257" viewBox="0 0 257 257" fill="none" xmlns="http://www.w3.org/2000/svg">
<path d="M22.7757 132.689C22.7757 132.689 23.9836 170.211 55.2965 195.191C86.6094 220.172 129.991 221.981 165.113 224.356C200.234 226.73 227.188 206.849 231.3 176.816C235.412 146.783 208.53 137.942 193.969 103.725C179.407 69.5082 180.702 58.267 149.893 37.2238C119.084 16.1807 70.8604 29.0769 45.5922 65.1289C20.3239 101.181 22.7757 132.689 22.7757 132.689Z" fill="black"/>
<path opacity="0.7" d="M22.7757 132.689C22.7757 132.689 23.9836 170.211 55.2965 195.191C86.6094 220.172 129.991 221.981 165.113 224.356C200.234 226.73 227.188 206.849 231.3 176.816C235.412 146.783 208.53 137.942 193.969 103.725C179.407 69.5082 180.702 58.267 149.893 37.2238C119.084 16.1807 70.8604 29.0769 45.5922 65.1289C20.3239 101.181 22.7757 132.689 22.7757 132.689Z" fill="white"/>
<path d="M175.525 209.306C196.021 209.306 212.636 204.377 212.636 198.296C212.636 192.216 196.021 187.287 175.525 187.287C155.029 187.287 138.414 192.216 138.414 198.296C138.414 204.377 155.029 209.306 175.525 209.306Z" fill="#263238" stroke="#263238" stroke-width="0.613203" stroke-linecap="round" stroke-linejoin="round"/>
<path d="M175.526 192.349C193.079 192.349 207.78 195.947 211.64 200.825C212.249 200.119 212.601 199.228 212.637 198.296C212.637 192.21 196.019 187.281 175.526 187.281C155.033 187.281 138.41 192.21 138.41 198.296C138.446 199.228 138.798 200.119 139.407 200.825C143.267 195.968 157.968 192.349 175.526 192.349Z" fill="white" stroke="#263238" stroke-width="0.613203" stroke-linecap="round" stroke-linejoin="round"/>
<path d="M170.46 207.923C158.062 207.363 148.707 204.839 148.707 201.755C148.713 201.419 148.819 201.092 149.01 200.815" stroke="white" stroke-width="0.613203" stroke-linecap="round" stroke-linejoin="round"/>
<path d="M199.227 198.753C201.35 199.653 202.563 200.681 202.563 201.776C202.563 205.235 190.505 208.036 175.635 208.036H174.992" stroke="white" stroke-width="0.613203" stroke-linecap="round" stroke-linejoin="round"/>
<path d="M152.328 198.635C156.99 196.77 165.692 195.51 175.633 195.51C181.289 195.467 186.939 195.929 192.513 196.893" stroke="white" stroke-width="0.613203" stroke-linecap="round" stroke-linejoin="round"/>
<path d="M170.102 203.924C166.962 203.487 164.859 202.691 164.859 201.776C164.859 200.393 169.686 199.273 175.653 199.273C181.621 199.273 186.422 200.393 186.422 201.776C186.422 202.963 182.875 203.955 178.115 204.212" stroke="white" stroke-width="0.613203" stroke-linecap="round" stroke-linejoin="round"/>
<path d="M26.4805 154.035C42.6663 149.435 76.724 140.358 95.521 139.674C120.789 138.78 163.451 157.119 190.087 160.332C216.722 163.544 234.62 162.63 234.62 162.63" stroke="#263238" stroke-width="0.613203" stroke-linecap="round" stroke-linejoin="round"/>
<path d="M17.4766 156.662C17.4766 156.662 18.8746 156.235 21.3264 155.521" stroke="#263238" stroke-width="0.613203" stroke-linecap="round" stroke-linejoin="round"/>
<path d="M227.429 128.048C218.099 125.998 208.554 125.095 199.005 125.359C179.257 126.022 157.885 128.634 131.46 132.041C105.035 135.449 67.4053 116.621 41.8184 123.607C16.2315 130.592 18.1744 132.694 18.1744 132.694" stroke="#263238" stroke-width="0.613203" stroke-linecap="round" stroke-linejoin="round"/>
<path d="M234.708 129.939C234.708 129.939 233.71 129.61 231.906 129.132" stroke="#263238" stroke-width="0.613203" stroke-linecap="round" stroke-linejoin="round"/>
<path d="M187.327 81.392C187.043 80.2367 186.38 79.2102 185.443 78.4763C184.507 77.7424 183.352 77.3436 182.162 77.3436C180.972 77.3436 179.817 77.7424 178.88 78.4763C177.944 79.2102 177.28 80.2367 176.996 81.392H187.327Z" stroke="#263238" stroke-width="0.613203" stroke-linecap="round" stroke-linejoin="round"/>
<path d="M239.527 81.392C239.215 80.0755 238.504 78.887 237.493 77.9885C236.481 77.09 235.217 76.5249 233.873 76.3702C234.296 74.1374 234.22 71.8387 233.65 69.6387C233.081 67.4386 232.032 65.3916 230.579 63.6442C229.127 61.8967 227.306 60.4919 225.246 59.5304C223.187 58.5688 220.941 58.0743 218.669 58.0821C215.04 58.0823 211.527 59.3588 208.744 61.6884C205.962 64.0179 204.087 67.2519 203.449 70.8242C201.99 69.683 200.239 68.9751 198.397 68.7813C196.555 68.5875 194.695 68.9156 193.03 69.7282C191.365 70.5407 189.963 71.805 188.982 73.3766C188.001 74.9483 187.482 76.7639 187.484 78.6164C187.487 79.5596 187.624 80.4975 187.89 81.4023L239.527 81.392Z" stroke="#263238" stroke-width="0.613203" stroke-linecap="round" stroke-linejoin="round"/>
<path d="M95.3847 93.8C95.2432 93.2106 94.9074 92.686 94.4314 92.3107C93.9554 91.9354 93.3668 91.7313 92.7607 91.7313C92.1545 91.7313 91.566 91.9354 91.09 92.3107C90.614 92.686 90.2782 93.2106 90.1367 93.8H95.3847Z" stroke="#263238" stroke-width="0.613203" stroke-linecap="round" stroke-linejoin="round"/>
<path d="M121.88 93.8C121.723 93.128 121.364 92.5205 120.849 92.0605C120.335 91.6005 119.691 91.3105 119.006 91.23C119.254 90.193 119.287 89.1166 119.105 88.0663C118.922 87.016 118.528 86.0139 117.945 85.121C117.363 84.2281 116.605 83.4633 115.717 82.8731C114.829 82.2829 113.831 81.8797 112.782 81.6882C111.733 81.4966 110.657 81.5207 109.618 81.7589C108.578 81.9972 107.599 82.4446 106.738 83.0739C105.878 83.7031 105.155 84.5011 104.613 85.4191C104.071 86.3371 103.722 87.3559 103.586 88.4133C102.846 87.8344 101.957 87.4752 101.022 87.3769C100.087 87.2785 99.1433 87.4448 98.2983 87.8569C97.4533 88.2689 96.7411 88.9101 96.2429 89.7074C95.7447 90.5046 95.4805 91.4258 95.4805 92.3659C95.4828 92.8461 95.552 93.3235 95.6861 93.7846L121.88 93.8Z" stroke="#263238" stroke-width="0.613203" stroke-linecap="round" stroke-linejoin="round"/>
<path d="M119.212 102.096C119.124 101.724 118.912 101.392 118.612 101.155C118.312 100.918 117.94 100.789 117.557 100.789C117.175 100.789 116.803 100.918 116.503 101.155C116.203 101.392 115.991 101.724 115.902 102.096H119.212Z" stroke="#263238" stroke-width="0.613203" stroke-linecap="round" stroke-linejoin="round"/>
<path d="M135.941 102.096C135.841 101.674 135.613 101.292 135.289 101.004C134.964 100.716 134.558 100.536 134.127 100.487C134.183 100.187 134.21 99.8825 134.209 99.5773C134.194 98.3513 133.724 97.1745 132.892 96.2745C132.059 95.3744 130.923 94.815 129.701 94.7044C128.48 94.5938 127.262 94.9399 126.281 95.6757C125.3 96.4115 124.627 97.4848 124.392 98.6881C123.924 98.323 123.363 98.0967 122.773 98.035C122.183 97.9733 121.587 98.0787 121.054 98.3391C120.521 98.5995 120.072 99.0045 119.757 99.5079C119.443 100.011 119.277 100.593 119.277 101.186C119.278 101.489 119.321 101.79 119.406 102.08L135.941 102.096Z" stroke="#263238" stroke-width="0.613203" stroke-linecap="round" stroke-linejoin="round"/>
<path d="M83.6038 161.309C83.4229 161.311 83.2448 161.263 83.0898 161.17C82.865 161.031 82.7022 160.811 82.6352 160.556C82.5682 160.3 82.6021 160.029 82.73 159.797C82.9818 159.355 146.533 90.0528 175.61 64.6407C175.711 64.5592 175.84 64.5192 175.969 64.5287C176.099 64.5383 176.22 64.5966 176.309 64.6921C176.393 64.7941 176.435 64.9249 176.426 65.057C176.416 65.1892 176.356 65.3126 176.257 65.4014C147.324 90.7056 84.714 160.368 84.4622 160.805C84.3765 160.957 84.2519 161.084 84.1011 161.173C83.9503 161.261 83.7786 161.308 83.6038 161.309Z" fill="#263238"/>
<path d="M87.1145 147.518C87.1145 147.518 90.2653 144.156 92.1569 144.156C94.0484 144.156 97.6207 147.307 97.4099 148.988C97.1992 150.669 94.0484 149.199 94.0484 149.199C94.0484 149.199 91.1032 153.193 88.1631 152.56C85.223 151.928 87.1145 147.518 87.1145 147.518Z" fill="black" stroke="#263238" stroke-width="0.613203" stroke-linecap="round" stroke-linejoin="round"/>
<path d="M94.0642 149.188C94.0642 149.188 95.9917 150.525 96.1614 151.465C96.331 152.406 94.0231 155.063 91.4583 155.66C88.8934 156.256 87.521 154.801 88.292 153.434C89.063 152.067 92.1213 149.312 94.0642 149.188Z" fill="black" stroke="#263238" stroke-width="0.613203" stroke-linecap="round" stroke-linejoin="round"/>
<path d="M173.22 137.012V67.4727C173.22 67.4727 171.816 72.5048 171.816 72.8697" stroke="#263238" stroke-width="0.613203" stroke-linecap="round" stroke-linejoin="round"/>
<path d="M202.221 140.677H148.898V183.4H202.221V140.677Z" fill="black" stroke="#263238" stroke-width="0.613203" stroke-linecap="round" stroke-linejoin="round"/>
<path d="M173.981 140.497V138.05C173.981 137.888 173.917 137.732 173.802 137.618C173.687 137.503 173.532 137.439 173.369 137.439C173.207 137.439 173.052 137.503 172.937 137.618C172.822 137.732 172.758 137.888 172.758 138.05V140.497H173.981Z" fill="#263238"/>
<path d="M178.874 134.545V134.668C178.825 134.575 178.751 134.496 178.66 134.441C178.57 134.386 178.466 134.356 178.36 134.354C178.197 134.354 178.04 134.419 177.924 134.535C177.809 134.651 177.744 134.808 177.744 134.971V141.504C177.744 142.004 177.545 142.483 177.193 142.836C176.84 143.19 176.362 143.389 175.862 143.391C175.604 143.391 175.348 143.337 175.112 143.231C174.975 143.434 174.916 143.68 174.944 143.923C174.973 144.166 175.087 144.391 175.266 144.557C175.463 144.594 175.662 144.613 175.862 144.614C176.271 144.614 176.675 144.533 177.052 144.377C177.43 144.221 177.772 143.992 178.061 143.703C178.35 143.414 178.579 143.072 178.735 142.694C178.892 142.317 178.972 141.913 178.972 141.504V138.477H180.38L178.874 134.545Z" fill="#263238"/>
<path d="M173.27 66.8199C173.27 66.8199 174.36 62.9495 173.394 63.3093C172.427 63.6691 173.27 66.8199 173.27 66.8199Z" stroke="#263238" stroke-width="0.613203" stroke-linecap="round" stroke-linejoin="round"/>
<path d="M173.27 66.8201C173.27 66.8201 169.158 65.3655 169.523 66.6967C169.888 68.028 173.27 66.8201 173.27 66.8201Z" stroke="#263238" stroke-width="0.613203" stroke-linecap="round" stroke-linejoin="round"/>
<path d="M84.5996 100.554C84.5996 100.554 79.5264 97.7113 69.5754 99.1351C59.6243 100.559 57.7277 108.762 59.3519 117.29C60.9761 125.817 70.3875 133.039 71.8113 132.432C73.2351 131.825 71.4052 112.736 74.6537 109.081C77.9022 105.426 88.4597 106.038 89.0457 103.196C89.6317 100.353 84.5996 100.554 84.5996 100.554Z" fill="#263238" stroke="#263238" stroke-width="0.613203" stroke-linecap="round" stroke-linejoin="round"/>
<path d="M66.914 105.617L67.942 112.335C67.942 112.335 61.5684 129.734 62.6016 132.149C63.6347 134.565 73.2773 135.418 73.2773 135.418C73.2773 135.418 88.9543 137.315 93.606 135.418C98.2577 133.522 95.8471 128.012 95.3279 126.465C94.8088 124.917 91.8841 112.509 91.8841 112.509C91.8841 112.509 92.9121 109.58 92.9121 108.033C92.9121 106.485 92.7374 102.173 92.0486 101.14C91.3599 100.107 79.3014 98.8987 73.961 99.7623C68.6205 100.626 66.2253 102.003 66.914 105.617Z" fill="#757575" stroke="#263238" stroke-width="0.613203" stroke-linecap="round" stroke-linejoin="round"/>
<path d="M69.6747 113.373C69.6747 113.373 69.4999 128.356 70.3634 131.286C71.2269 134.216 74.6707 137.659 81.9027 136.796C89.1347 135.932 89.8286 129.045 89.8286 129.045L89.3146 113.029L69.6747 113.373Z" fill="white" stroke="#263238" stroke-width="0.613203" stroke-linecap="round" stroke-linejoin="round"/>
<path d="M82.0749 124.136C82.0759 124.392 82.0008 124.643 81.8591 124.857C81.7174 125.071 81.5155 125.238 81.2789 125.336C81.0423 125.435 80.7817 125.462 80.5301 125.412C80.2785 125.363 80.0472 125.24 79.8656 125.059C79.6839 124.878 79.56 124.647 79.5096 124.396C79.4592 124.144 79.4846 123.884 79.5825 123.647C79.6804 123.41 79.8464 123.207 80.0595 123.065C80.2726 122.922 80.5232 122.846 80.7796 122.846C80.9495 122.845 81.1178 122.878 81.2749 122.943C81.4321 123.007 81.5749 123.102 81.6952 123.222C81.8156 123.342 81.9111 123.484 81.9762 123.641C82.0414 123.798 82.0749 123.966 82.0749 124.136Z" stroke="#263238" stroke-width="0.613203" stroke-miterlimit="10"/>
<path d="M81.9028 129.564C81.9028 129.735 81.852 129.902 81.7569 130.044C81.6618 130.186 81.5266 130.297 81.3686 130.362C81.2105 130.427 81.0366 130.444 80.8689 130.411C80.7013 130.377 80.5474 130.294 80.4269 130.173C80.3063 130.051 80.2245 129.897 80.1918 129.729C80.159 129.561 80.1768 129.388 80.243 129.23C80.3091 129.072 80.4206 128.938 80.5633 128.843C80.706 128.749 80.8734 128.699 81.0444 128.7C81.1576 128.7 81.2696 128.723 81.3741 128.766C81.4786 128.81 81.5735 128.873 81.6532 128.954C81.733 129.034 81.7961 129.129 81.839 129.234C81.8818 129.339 81.9035 129.451 81.9028 129.564Z" fill="#263238"/>
<path d="M76.6997 118.611C77.2496 119.207 77.4398 119.921 77.1314 120.214C76.823 120.507 76.1034 120.261 75.5637 119.669C75.024 119.078 74.8184 118.364 75.132 118.071C75.4455 117.778 76.1497 118.02 76.6997 118.611Z" fill="#263238"/>
<path d="M83.6948 118.611C83.1448 119.207 82.9495 119.921 83.263 120.214C83.5766 120.507 84.291 120.261 84.805 119.669C85.319 119.078 85.5503 118.364 85.2368 118.071C84.9233 117.778 84.2448 118.02 83.6948 118.611Z" fill="#263238"/>
<path d="M73.0195 116.58C73.4053 116.011 73.9599 115.577 74.6053 115.339C75.2507 115.101 75.9544 115.071 76.6175 115.254" stroke="#263238" stroke-width="0.613203" stroke-linecap="round" stroke-linejoin="round"/>
<path d="M83.4219 115.444C83.4219 115.444 85.8788 114.689 86.6395 116.77" stroke="#263238" stroke-width="0.613203" stroke-linecap="round" stroke-linejoin="round"/>
<path d="M91.719 211.573C91.719 211.573 94.4278 209.948 95.9286 209.311C96.0692 209.246 96.2134 209.19 96.3604 209.141C97.6865 208.699 101.444 208.92 104.975 206.71C108.506 204.5 106.743 201.848 104.091 201.185C101.439 200.522 98.5706 199.643 98.5706 199.643L97.9075 189.255C97.9075 189.255 89.9508 191.465 87.2986 192.57C84.6463 193.675 86.1935 209.362 86.4145 210.689C86.6355 212.015 86.6355 212.899 91.719 211.573Z" fill="#263238" stroke="#263238" stroke-width="0.613203" stroke-linecap="round" stroke-linejoin="round"/>
<path d="M100.56 206.71C95.9344 207.594 95.9344 208.478 90.8355 209.362C89.342 209.661 87.819 209.785 86.2969 209.733C86.3483 210.205 86.3894 210.54 86.4151 210.689C86.6361 212.015 86.6361 212.899 91.7196 211.573C91.7196 211.573 94.4284 209.948 95.9292 209.311C96.0699 209.246 96.214 209.19 96.361 209.141C97.6871 208.699 101.444 208.92 104.976 206.71C106.112 206.006 106.692 205.25 106.883 204.531C104.876 205.521 102.751 206.254 100.56 206.71Z" fill="white" stroke="#263238" stroke-width="0.613203" stroke-linecap="round" stroke-linejoin="round"/>
<path d="M102.4 201.051C102.4 201.051 102.23 213.11 101.886 215.69C101.541 218.27 102.055 221.549 105.998 221.549C109.94 221.549 117.712 218.979 120.467 218.465C123.222 217.951 127.704 216.738 129.595 212.436C131.487 208.134 119.953 208.643 119.953 208.643L120.642 199.859C120.642 199.859 108.773 202.254 102.4 201.051Z" fill="#263238" stroke="#263238" stroke-width="0.613203" stroke-linecap="round" stroke-linejoin="round"/>
<path d="M129.617 212.421C129.828 212.003 129.879 211.522 129.761 211.069C128.58 212.672 126.979 213.917 125.135 214.667C121.023 216.389 113.246 218.265 107.391 219.149C104.713 219.54 103.017 219.103 101.953 218.517C102.333 220.187 103.449 221.56 106.014 221.56C109.977 221.56 117.728 218.99 120.483 218.476C123.238 217.962 127.725 216.723 129.617 212.421Z" fill="white" stroke="#263238" stroke-width="0.613203" stroke-linecap="round" stroke-linejoin="round"/>
<path d="M119.976 208.628C119.976 208.628 120.834 211.557 118.434 213.454" stroke="white" stroke-width="0.613203" stroke-linecap="round" stroke-linejoin="round"/>
<path d="M101.197 194.678C101.197 194.678 100.93 199.915 101.223 200.964C102.323 204.942 102.673 204.012 110.943 203.837C119.213 203.662 122.554 200.362 123.418 198.296C124.281 196.23 123.418 191.748 123.073 190.195C122.729 188.643 119.989 188.139 118.936 188.304C117.882 188.468 101.711 192.956 101.197 194.678Z" fill="#757575" stroke="#263238" stroke-width="0.613203" stroke-linecap="round" stroke-linejoin="round"/>
<path d="M44.3477 207.769V219.344C44.3515 219.797 44.4789 220.241 44.7163 220.627C44.9536 221.012 45.2918 221.326 45.6943 221.534L64.3011 231.141C64.6322 231.313 64.9979 231.408 65.3709 231.418C65.7439 231.429 66.1144 231.355 66.4548 231.202L93.8664 220.753C94.3038 220.557 94.6752 220.238 94.936 219.836C95.1967 219.434 95.3358 218.965 95.3365 218.486V204.495L63.9825 213.968L44.3477 207.769Z" fill="black"/>
<path opacity="0.18" d="M65.3651 213.551L63.9876 213.968L44.3477 207.769V219.344C44.3515 219.797 44.4789 220.241 44.7163 220.626C44.9536 221.012 45.2918 221.326 45.6943 221.534L64.3011 231.141C64.6301 231.313 64.994 231.408 65.3651 231.418V213.551Z" fill="black"/>
<path d="M44.3477 207.769V219.344C44.3515 219.797 44.4789 220.241 44.7163 220.627C44.9536 221.012 45.2918 221.326 45.6943 221.534L64.3011 231.141C64.6322 231.313 64.9979 231.408 65.3709 231.418C65.7439 231.429 66.1144 231.355 66.4548 231.202L93.8664 220.753C94.3038 220.557 94.6752 220.238 94.936 219.836C95.1967 219.434 95.3358 218.965 95.3365 218.486V204.495L63.9825 213.968L44.3477 207.769Z" stroke="#263238" stroke-width="0.613203" stroke-linecap="round" stroke-linejoin="round"/>
<path d="M72.9893 188.227L42.9203 197.89C42.6853 197.965 42.4804 198.113 42.3353 198.313C42.1902 198.513 42.1124 198.753 42.1133 199V207.574C42.1178 207.79 42.1822 208 42.2993 208.182C42.4164 208.363 42.5815 208.508 42.7763 208.602L63.7373 218.578C63.8784 218.646 64.0317 218.684 64.188 218.691C64.3443 218.698 64.5004 218.674 64.647 218.62L96.1193 206.844C96.3419 206.761 96.534 206.613 96.6699 206.418C96.8059 206.223 96.8791 205.992 96.88 205.754L96.9365 197.71C96.9348 197.444 96.8429 197.186 96.6758 196.979C96.5087 196.772 96.2763 196.627 96.0165 196.569L73.5855 188.196C73.3873 188.156 73.1823 188.167 72.9893 188.227Z" fill="white"/>
<path d="M63.7031 218.573C63.8443 218.641 63.9975 218.679 64.1538 218.686C64.3101 218.693 64.4662 218.669 64.6129 218.615L96.1211 206.844C96.3437 206.761 96.5358 206.613 96.6718 206.418C96.8077 206.223 96.881 205.992 96.8818 205.754L96.9384 197.71C96.9391 197.436 96.8405 197.171 96.6608 196.965L64.1503 208.972L63.7031 218.573Z" fill="black"/>
<path opacity="0.5" d="M63.7031 218.573C63.8443 218.641 63.9975 218.679 64.1538 218.686C64.3101 218.693 64.4662 218.669 64.6129 218.615L96.1211 206.844C96.3437 206.761 96.5358 206.613 96.6718 206.418C96.8077 206.223 96.881 205.992 96.8818 205.754L96.9384 197.71C96.9391 197.436 96.8405 197.171 96.6608 196.965L64.1503 208.972L63.7031 218.573Z" fill="white"/>
<path d="M42.1133 198.974V207.548C42.1178 207.764 42.1822 207.974 42.2993 208.156C42.4164 208.337 42.5815 208.483 42.7763 208.576L63.7373 218.578C63.8772 218.646 64.0293 218.684 64.1844 218.692V208.972L42.1493 198.774C42.1294 198.839 42.1173 198.906 42.1133 198.974Z" fill="black"/>
<path d="M72.9893 188.227L42.9203 197.89C42.6853 197.965 42.4804 198.113 42.3353 198.313C42.1902 198.513 42.1124 198.753 42.1133 199V207.574C42.1178 207.79 42.1822 208 42.2993 208.182C42.4164 208.363 42.5815 208.508 42.7763 208.602L63.7373 218.578C63.8784 218.646 64.0317 218.684 64.188 218.691C64.3443 218.698 64.5004 218.674 64.647 218.62L96.1193 206.844C96.3419 206.761 96.534 206.613 96.6699 206.418C96.8059 206.223 96.8791 205.992 96.88 205.754L96.9365 197.71C96.9348 197.444 96.8429 197.186 96.6758 196.979C96.5087 196.772 96.2763 196.627 96.0165 196.569L73.5855 188.196C73.3873 188.156 73.1823 188.167 72.9893 188.227V188.227Z" stroke="#263238" stroke-width="0.613203" stroke-linecap="round" stroke-linejoin="round"/>
<path d="M114.291 172.457C114.291 172.457 118.249 174.349 120.32 178.142C122.392 181.935 120.834 189.162 119.626 191.403C118.418 193.644 110.328 194.677 107.573 194.677C104.818 194.677 104.299 194.333 104.299 194.333C104.299 194.333 95.5145 196.055 89.9992 197.088C84.484 198.121 85.8872 185.204 87.5886 179.345C89.2899 173.485 98.9583 170.561 102.921 170.561C106.884 170.561 114.291 172.457 114.291 172.457Z" fill="#263238" stroke="#263238" stroke-width="0.613203" stroke-linecap="round" stroke-linejoin="round"/>
<path d="M104.297 194.333C104.297 194.333 111.704 191.763 114.803 185.204" stroke="white" stroke-width="0.613203" stroke-linecap="round" stroke-linejoin="round"/>
<path d="M111.359 190.54C113.746 189.539 115.912 188.077 117.733 186.238" stroke="white" stroke-width="0.613203" stroke-linecap="round" stroke-linejoin="round"/>
<path d="M93.9603 178.142C93.9603 178.142 96.0163 188.993 94.9883 193.47C93.9603 197.947 87.926 198.64 86.5485 198.121C85.1709 197.602 85.8597 186.926 85.8597 181.586C85.8597 176.245 91.2053 176.59 93.9603 178.142Z" fill="#757575" stroke="#263238" stroke-width="0.613203" stroke-linecap="round" stroke-linejoin="round"/>
<path d="M50.0349 149.199C50.0349 149.199 48.8322 156.256 49.6905 159.71C50.1278 161.634 50.9477 163.45 52.1012 165.051C52.1012 165.051 47.7939 171.424 48.6574 176.759C49.5209 182.095 51.7414 182.789 51.7414 182.789C51.7414 182.789 49.8499 192.611 53.2834 196.055C56.7169 199.499 64.3087 203.287 72.7486 201.74C81.1884 200.193 86.8733 199.843 88.5952 196.913C90.3171 193.984 89.2839 181.067 89.2839 181.067C89.2839 181.067 88.9396 166.772 88.5952 157.983C88.2508 149.194 87.0532 142.136 82.9104 138.693C78.7675 135.249 60.5154 140.589 55.0053 144.203C49.4952 147.816 50.0349 149.199 50.0349 149.199Z" fill="black"/>
<path opacity="0.3" d="M51.2615 149.199C51.2615 149.199 50.0536 156.261 50.9171 159.71C51.3519 161.635 52.1719 163.451 53.3278 165.051C53.3278 165.051 49.0204 171.424 49.884 176.759C50.7475 182.095 52.968 182.789 52.968 182.789C52.968 182.789 51.0713 192.611 54.51 196.055C57.9486 199.499 65.5558 203.287 74.0163 201.74C82.4767 200.193 88.1461 199.843 89.868 196.913C91.5899 193.984 90.5568 181.067 90.5568 181.067C90.5568 181.067 90.2124 166.772 89.868 157.983C89.5236 149.194 88.326 142.136 84.1832 138.693C80.0403 135.249 61.7882 140.589 56.2781 144.203C50.768 147.816 51.2615 149.199 51.2615 149.199Z" fill="black"/>
<path d="M50.0349 149.199C50.0349 149.199 48.8322 156.256 49.6905 159.71C50.1278 161.634 50.9477 163.45 52.1012 165.051C52.1012 165.051 47.7939 171.424 48.6574 176.759C49.5209 182.095 51.7414 182.789 51.7414 182.789C51.7414 182.789 49.8499 192.611 53.2834 196.055C56.7169 199.499 64.3087 203.287 72.7486 201.74C81.1884 200.193 86.8733 199.843 88.5952 196.913C90.3171 193.984 89.2839 181.067 89.2839 181.067C89.2839 181.067 88.9396 166.772 88.5952 157.983C88.2508 149.194 87.0532 142.136 82.9104 138.693C78.7675 135.249 60.5154 140.589 55.0053 144.203C49.4952 147.816 50.0349 149.199 50.0349 149.199Z" stroke="#263238" stroke-width="0.613203" stroke-linecap="round" stroke-linejoin="round"/>
<path d="M52.1016 165.051C54.7684 166.87 57.8194 168.048 61.0166 168.494C64.2139 168.94 67.4709 168.641 70.5336 167.621" stroke="#263238" stroke-width="0.613203" stroke-linecap="round" stroke-linejoin="round"/>
<path d="M51.7578 182.789C51.7578 182.789 60.5421 191.403 75.0163 183.133" stroke="#263238" stroke-width="0.613203" stroke-linecap="round" stroke-linejoin="round"/>
<path d="M86.0333 140.759C86.0333 140.759 82.7643 135.763 78.2822 133.008C73.8001 130.253 62.266 128.187 57.6143 127.323C52.9626 126.459 47.9665 126.809 46.589 131.949C45.2114 137.089 45.3811 145.729 46.7586 149.518C48.1361 153.306 53.8209 155.547 58.303 152.966C62.7851 150.386 75.1828 140.389 79.4901 139.875C83.7974 139.361 85.6889 142.656 86.0333 140.759Z" fill="#757575"/>
<path opacity="0.3" d="M76.478 139.808C79.1046 138.713 72.5357 140.682 72.0988 140.024C71.6619 139.366 76.6939 136.087 77.7887 135.65C78.8836 135.213 71.4409 136.745 71.6619 135.65C71.8829 134.555 78.8836 134.334 74.0674 133.239C69.2512 132.144 53.5074 129.297 50.4234 128.202C50.1875 128.125 49.9641 128.014 49.7603 127.873C48.9629 128.284 48.2655 128.866 47.7175 129.576C47.1695 130.287 46.7842 131.109 46.589 131.985C45.2114 137.151 45.3811 145.765 46.7586 149.553C47.9613 152.853 52.4126 154.976 56.5246 153.768C58.4212 152.226 60.174 150.201 63.1398 148.335C69.0353 144.604 73.8515 140.882 76.478 139.808Z" fill="black"/>
<path d="M86.0333 140.759C86.0333 140.759 82.7643 135.763 78.2822 133.008C73.8001 130.253 62.266 128.187 57.6143 127.323C52.9626 126.459 47.9665 126.809 46.589 131.949C45.2114 137.089 45.3811 145.729 46.7586 149.518C48.1361 153.306 53.8209 155.547 58.303 152.966C62.7851 150.386 75.1828 140.389 79.4901 139.875C83.7974 139.361 85.6889 142.656 86.0333 140.759Z" stroke="#263238" stroke-width="0.613203" stroke-linecap="round" stroke-linejoin="round"/>
<path d="M104.643 164.187C104.643 164.187 108.606 164.701 111.186 165.729C113.767 166.757 115.494 173.136 114.461 173.994C113.427 174.852 111.377 173.824 111.377 173.824C109.756 174.394 108.082 174.797 106.38 175.027C104.299 175.212 102.058 165.395 104.643 164.187Z" fill="black" stroke="#263238" stroke-width="0.613203" stroke-linecap="round" stroke-linejoin="round"/>
<path d="M91.5495 163.668C91.5495 163.668 92.2383 163.668 96.0265 161.946C99.8147 160.224 102.919 160.224 105.33 164.002C107.741 167.78 108.774 172.447 107.386 175.202C105.998 177.957 100.843 179.854 98.0825 179.854C95.3223 179.854 94.9985 176.256 94.9985 176.256C94.9985 176.256 94.6541 170.571 92.9425 168.505C91.2309 166.438 90.8608 164.187 91.5495 163.668Z" fill="#757575" stroke="#263238" stroke-width="0.613203" stroke-linecap="round" stroke-linejoin="round"/>
<path d="M78.8031 140.759C82.5913 139.381 87.4177 140.245 89.1396 145.066C90.8615 149.888 92.4087 164.012 92.4087 164.012C92.4087 164.012 96.716 164.526 98.4379 166.428C100.16 168.33 101.008 173.146 100.679 175.557C100.35 177.967 94.3053 182.444 87.4177 182.619C80.5301 182.794 75.5289 179.535 73.1182 170.73C70.7076 161.925 71.6636 148.546 71.6636 148.546C71.6636 148.546 72.5374 144.604 73.8533 143.725" fill="black"/>
<path opacity="0.3" d="M100.679 175.557C101.023 173.146 100.165 168.32 98.4379 166.428C98.3711 166.351 98.2889 166.279 98.2169 166.207C98.4233 167.755 98.5469 169.313 98.587 170.874C98.9314 180.985 84.8015 179.293 81.9539 171.969C80.4119 168.027 79.9802 150.73 75.385 149.42C72.7328 148.664 71.8281 150.741 71.5403 152.637C71.4478 157.598 71.6123 165.241 73.1183 170.73C75.5289 179.52 80.525 182.789 87.4178 182.619C94.3105 182.449 100.335 177.967 100.679 175.557Z" fill="black"/>
<path d="M78.8031 140.759C82.5913 139.381 87.4177 140.245 89.1396 145.066C90.8615 149.888 92.4087 164.012 92.4087 164.012C92.4087 164.012 96.716 164.526 98.4379 166.428C100.16 168.33 101.008 173.146 100.679 175.557C100.35 177.967 94.3053 182.444 87.4177 182.619C80.5301 182.794 75.5289 179.535 73.1182 170.73C70.7076 161.925 71.6636 148.546 71.6636 148.546C71.6636 148.546 72.5374 144.604 73.8533 143.725" stroke="#263238" stroke-width="0.613203" stroke-linecap="round" stroke-linejoin="round"/>
<path d="M92.4077 164.012C92.4077 164.012 93.7544 170.288 86.8359 173.732" stroke="#263238" stroke-width="0.613203" stroke-linecap="round" stroke-linejoin="round"/>
<path d="M58.1328 54.6126C58.1328 53.1837 58.7907 52.13 60.2762 52.13C61.7617 52.13 62.4504 53.158 62.4504 54.6126V59.6241C62.4504 61.053 61.7874 62.1067 60.2762 62.1067C58.765 62.1067 58.1328 61.0787 58.1328 59.6241V54.6126ZM58.7753 59.6704C58.7753 60.7395 59.1968 61.5208 60.2762 61.5208C61.3556 61.5208 61.8182 60.7395 61.8182 59.6704V54.5715C61.8182 53.5075 61.3864 52.7211 60.2762 52.7211C59.166 52.7211 58.7753 53.5075 58.7753 54.5715V59.6704Z" fill="#263238"/>
<path d="M63.4727 54.6124C63.4727 53.1835 64.1306 52.1298 65.616 52.1298C67.1015 52.1298 67.7903 53.1578 67.7903 54.6124V59.6239C67.7903 61.0529 67.1323 62.1066 65.616 62.1066C64.0997 62.1066 63.4727 61.0786 63.4727 59.6239V54.6124ZM64.1152 59.6702C64.1152 60.7393 64.5366 61.5206 65.616 61.5206C66.6954 61.5206 67.158 60.7393 67.158 59.6702V54.5713C67.158 53.5073 66.7263 52.7209 65.616 52.7209C64.5058 52.7209 64.1152 53.5073 64.1152 54.5713V59.6702Z" fill="#263238"/>
<path d="M70.8899 52.2173C72.401 52.2173 72.9921 53.1682 72.9921 54.5972V55.6663C72.9921 57.2083 72.2725 57.9896 70.7203 57.9896H69.5021V62.0296H68.875V52.2173H70.8899ZM70.7203 57.4036C71.8562 57.4036 72.3445 56.8896 72.3445 55.7074V54.556C72.3445 53.4921 71.9796 52.8033 70.8899 52.8033H69.5021V57.4293L70.7203 57.4036Z" fill="#263238"/>
<path d="M78.0898 54.5869V54.7925H77.473V54.5406C77.473 53.5126 77.0824 52.7211 76.0184 52.7211C74.9544 52.7211 74.5586 53.492 74.5586 54.5303C74.5586 56.9101 78.1052 56.9513 78.1052 59.6703C78.1052 61.0838 77.4884 62.1221 75.9875 62.1221C74.4867 62.1221 73.875 61.0941 73.875 59.6703V59.1563H74.4918V59.7012C74.4918 60.7292 74.8979 61.5104 75.9773 61.5104C77.0567 61.5104 77.4627 60.7497 77.4627 59.7012C77.4627 57.3471 73.9161 57.3059 73.9161 54.5612C73.9161 53.0911 74.5586 52.1351 76.003 52.1197C77.4473 52.1043 78.0898 53.1682 78.0898 54.5869Z" fill="#263238"/>
<path d="M79.7052 60.796V62.0296H79.0781V60.796H79.7052Z" fill="#263238"/>
<path d="M81.4591 60.796V62.0296H80.832V60.796H81.4591Z" fill="#263238"/>
<path d="M83.2103 60.796V62.0296H82.5781V60.796H83.2103Z" fill="#263238"/>
<path d="M60.2061 66.491C61.7481 66.491 62.3083 67.4419 62.3083 68.876V69.94C62.3083 71.482 61.5939 72.2684 60.0416 72.2684H58.8183V76.3033H58.1758V66.491H60.2061ZM60.0416 71.6773C61.1724 71.6773 61.6658 71.1633 61.6658 69.9811V68.8297C61.6658 67.7657 61.3009 67.0821 60.2061 67.0821H58.8183V71.6773H60.0416Z" fill="#263238"/>
<path d="M64.0348 74.129L63.5208 76.3033H62.9297L65.0731 66.4756H66.0137L68.1982 76.3033H67.5557L67.0417 74.129H64.0348ZM64.1324 73.5688H66.9903L65.5459 67.2209L64.1324 73.5688Z" fill="#263238"/>
<path d="M73.3836 68.876V69.6059H72.7668V68.8349C72.7668 67.8069 72.3607 66.9845 71.2813 66.9845C70.2019 66.9845 69.7959 67.7864 69.7959 68.8349V73.9389C69.7959 74.9669 70.2019 75.7739 71.2813 75.7739C72.3607 75.7739 72.7668 74.9875 72.7668 73.9389V71.8213H71.4458V71.2353H73.363V73.8978C73.363 75.3113 72.7462 76.3753 71.2454 76.3753C69.7445 76.3753 69.1328 75.3113 69.1328 73.8978V68.876C69.1328 67.4625 69.7496 66.3986 71.2454 66.3986C72.7411 66.3986 73.3836 67.4728 73.3836 68.876Z" fill="#263238"/>
<path d="M77.7865 71.0348V71.6207H75.1086V75.7327H78.3314V76.3239H74.4609V66.491H78.3314V67.0821H75.1086V71.0348H77.7865Z" fill="#263238"/>
<path d="M82.1458 76.3033H81.5547V66.491H82.3976L85.3223 74.7767V66.491H85.9083V76.3033H85.1938L82.1098 67.5653L82.1458 76.3033Z" fill="#263238"/>
<path d="M87 68.876C87 67.4471 87.6579 66.3986 89.1434 66.3986C90.6288 66.3986 91.3176 67.4266 91.3176 68.876V73.8978C91.3176 75.3267 90.6545 76.3753 89.1434 76.3753C87.6322 76.3753 87 75.3473 87 73.8978V68.876ZM87.6425 73.9389C87.6425 75.0029 88.064 75.7893 89.1434 75.7893C90.2228 75.7893 90.6854 75.0029 90.6854 73.9389V68.8349C90.6854 67.7709 90.2536 66.9845 89.1434 66.9845C88.0331 66.9845 87.6425 67.7709 87.6425 68.8349V73.9389Z" fill="#263238"/>
<path d="M94.0595 76.3033V67.0821H92.0703V66.491H96.6963V67.0821H94.6917V76.3033H94.0595Z" fill="#263238"/>
<path d="M102.842 71.2712V71.8572H100.303V76.3033H99.6602V66.491H103.387V67.0821H100.303V71.2712H102.842Z" fill="#263238"/>
<path d="M104.34 68.876C104.34 67.4471 104.998 66.3986 106.483 66.3986C107.969 66.3986 108.657 67.4266 108.657 68.876V73.8978C108.657 75.3267 108 76.3753 106.483 76.3753C104.967 76.3753 104.34 75.3473 104.34 73.8978V68.876ZM104.982 73.9389C104.982 75.0029 105.404 75.7893 106.483 75.7893C107.563 75.7893 108.025 75.0029 108.025 73.9389V68.8349C108.025 67.7709 107.593 66.9845 106.483 66.9845C105.373 66.9845 104.982 67.7709 104.982 68.8349V73.9389Z" fill="#263238"/>
<path d="M110.326 73.9337C110.326 74.9617 110.722 75.7996 111.801 75.7996C112.881 75.7996 113.271 74.9874 113.271 73.9337V66.491H113.873V73.908C113.873 75.3061 113.287 76.3855 111.786 76.3855C110.285 76.3855 109.684 75.3061 109.684 73.908V66.491H110.326V73.9337Z" fill="#263238"/>
<path d="M115.566 76.3033H114.98V66.491H115.818L118.764 74.7767V66.491H119.355V76.3033H118.635L115.551 67.5653L115.566 76.3033Z" fill="#263238"/>
<path d="M122.62 66.491C124.136 66.491 124.794 67.4882 124.794 68.9325V73.8618C124.794 75.3061 124.136 76.3033 122.62 76.3033H120.461V66.491H122.62ZM122.62 75.7122C123.715 75.7122 124.162 74.972 124.162 73.8926V68.9017C124.162 67.8223 123.699 67.0821 122.62 67.0821H121.124V75.7122H122.62Z" fill="#263238"/>
</svg>
